<?xml version="1.0" encoding="UTF-8"?>
<!-- Copyright (c) 2023 Braden Nicholson -->

<!--Generator: Apple Native CoreSVG 175.5-->
<!DOCTYPE svg
        PUBLIC "-//W3C//DTD SVG 1.1//EN"
        "http://www.w3.org/Graphics/SVG/1.1/DTD/svg11.dtd">
<svg version="1.1" xmlns="http://www.w3.org/2000/svg" width="40.7344"
     height="18.6406">
    <g>
        <rect height="18.6406" opacity="0" width="40.7344" x="0" y="0"/>
        <path d="M0 9.3125C0 14.9688 3.54688 18.625 8.75 18.625C11.5781 18.625 13.9219 17.4219 16.5 14.9375L20.375 11.2188L24.2344 14.9375C26.8281 17.4219 29.1719 18.625 31.9844 18.625C37.1875 18.625 40.7344 14.9688 40.7344 9.3125C40.7344 3.65625 37.1875 0 31.9844 0C29.1719 0 26.8281 1.20312 24.2344 3.6875L20.375 7.40625L16.5 3.6875C13.9219 1.20312 11.5781 0 8.75 0C3.54688 0 0 3.65625 0 9.3125ZM2.82812 9.3125C2.82812 5.35938 5.25 2.82812 8.75 2.82812C10.75 2.82812 12.5 3.79688 14.5156 5.6875L18.3906 9.3125L14.5 12.9375C12.4844 14.8125 10.75 15.7969 8.75 15.7969C5.25 15.7969 2.82812 13.2656 2.82812 9.3125ZM22.3438 9.3125L26.2188 5.6875C28.2344 3.79688 29.9844 2.82812 31.9844 2.82812C35.5 2.82812 37.9062 5.35938 37.9062 9.3125C37.9062 13.2656 35.5 15.7969 31.9844 15.7969C29.9844 15.7969 28.25 14.8125 26.2344 12.9375Z"
              fill="#ffffff" fill-opacity="0.85"/>
    </g>
</svg>
