<?xml version="1.0" encoding="UTF-8"?><!--Generator: Apple Native CoreSVG 175.5--><!DOCTYPE svg        PUBLIC "-//W3C//DTD SVG 1.1//EN"        "http://www.w3.org/Graphics/SVG/1.1/DTD/svg11.dtd"><svg version="1.1" xmlns="http://www.w3.org/2000/svg" width="21.3281"     height="31.4844">    <g>        <rect height="31.4844" opacity="0" width="21.3281" x="0" y="0"/>        <path d="M3.51562 30.6562L17.8125 30.6562C20.1094 30.6562 21.3281 29.4062 21.3281 26.9375L21.3281 16.1719C21.3281 13.7031 20.1094 12.4688 17.8125 12.4688L3.51562 12.4688C1.21875 12.4688 0 13.7031 0 16.1719L0 26.9375C0 29.4062 1.21875 30.6562 3.51562 30.6562ZM2.73438 13.6719L5.21875 13.6719L5.21875 8.39062C5.21875 4.45312 7.73438 2.35938 10.6562 2.35938C13.5781 2.35938 16.125 4.45312 16.125 8.39062L16.125 13.6719L18.5938 13.6719L18.5938 8.73438C18.5938 2.85938 14.75 0 10.6562 0C6.57812 0 2.73438 2.85938 2.73438 8.73438Z"              fill="#ffffff" fill-opacity="0.85"/>    </g></svg>